<svg xmlns="http://www.w3.org/2000/svg" viewBox="0 0 3046 1024" width="100%" height="100%">
    <path d="M1513.6 329.805c171.648 0 291.584 121.728 291.584 296.013 0 99.43-44.723 107.52-98.714 107.52h-334.899c16.333 96.69 72.986 145.664 168.525 145.664 45.44 0 87.424-10.47 121.42-30.31 22.452-12.8 38.503-21.198 56.73-21.198 48.768 0 70.708 43.93 70.708 75.136 0 25.268-15.616 47.207-47.744 67.098-56.372 35.61-126.541 53.683-208.487 53.683-205.619 0-328.371-128.256-328.371-343.117 0-212.915 121.37-350.464 309.248-350.464zM2475.11 0c69.376 0 83.968 37.658 83.968 69.248v306.253c38.836-27.392 89.293-41.267 150.144-41.267 187.853 0 309.248 131.788 309.248 335.744 0 218.01-134.86 353.433-351.948 353.433-80.461 0-163.124-19.456-215.808-50.688-59.572-35.149-59.572-79.104-59.572-121.625V69.274C2391.142 37.658 2405.71 0 2475.11 0zM97.126 337.178c69.376 0 83.968 37.657 83.968 69.248V949.76c0 31.565-14.592 69.222-83.968 69.222-69.401 0-83.968-37.632-83.968-69.222V406.426c0-31.59 14.567-69.248 83.968-69.248zm915.815-298.906c69.401 0 83.968 37.683 83.968 69.274V949.76c0 31.565-14.567 69.222-83.968 69.222-56.679 0-85.427-23.296-85.427-69.222V589.056H500.582V949.76c0 31.565-14.54 69.222-83.968 69.222-56.678 0-85.427-23.296-85.427-69.222V107.52c0-45.926 28.749-69.248 85.427-69.248 69.428 0 83.968 37.683 83.968 69.274v329.753h426.932V107.546c0-45.952 28.748-69.274 85.427-69.274zM2251.29 334.234c50.585 0 72.192 22.912 72.192 76.62 0 53.94-23.45 76.544-80.922 78.08-86.144 2.919-132.096 27.188-163.507 86.452V949.76c0 31.565-14.592 69.222-83.968 69.222-69.402 0-83.968-37.632-83.968-69.222V406.426c0-45.927 27.264-69.248 81.024-69.248 28.109 0 49.05 6.937 62.208 20.608 11.315 11.776 16.64 28.185 15.872 48.819v33.229c38.86-68.276 102.528-105.6 181.069-105.6zm421.12 138.496c-44.084 0-82.202 12.595-113.332 37.427v345.856c28.928 18.125 68.864 28.902 107.444 28.902 112.435 0 179.584-76.493 179.584-204.62 0-128.026-66.56-207.565-173.696-207.565zm-1161.754-7.348c-77.9 0-126.464 49.306-140.646 142.72h271.616c-1.588-89.472-50.279-142.72-130.97-142.72zM97.126 38.272c56.27 0 97.127 40.294 97.127 95.744 0 55.5-40.858 95.77-97.127 95.77C40.832 229.786 0 189.516 0 134.042c0-55.476 40.832-95.744 97.126-95.744zm2845.696-32.64a78.9 78.9 0 0 1 78.823 78.797 78.9 78.9 0 0 1-78.797 78.797 78.9 78.9 0 0 1-78.822-78.797 78.9 78.9 0 0 1 78.822-78.797zm0 14.9a64.077 64.077 0 0 0-64.102 63.897 64.077 64.077 0 0 0 64.128 63.897 63.974 63.974 0 0 0 63.872-63.897 63.974 63.974 0 0 0-63.872-63.898zm1.46 23.807c18.457 0 29.465 9.293 29.465 24.883a22.81 22.81 0 0 1-15.36 22.477l17.792 26.522c.896 1.792.973 3.225.256 4.403-.768 1.254-2.278 1.894-4.429 1.894h-9.804c-2.637 0-4.25-.87-6.144-3.276l-17.818-27.136h-5.53v25.932c0 2.97-1.638 4.48-4.864 4.48h-10.419c-3.251 0-4.864-1.536-4.864-4.48V48.794c0-2.048.82-4.455 4.864-4.455zm-.41 17.05h-11.162v15.667h11.367c7.245 0 10.342-2.355 10.342-7.834 0-5.58-3.072-7.833-10.547-7.833z" fill="#458500"></path>
</svg>